<svg width="24" height="24" viewBox="0 0 24 24" fill="none" xmlns="http://www.w3.org/2000/svg">
<path d="M10.5038 24C10.0799 24 9.72461 23.8563 9.43784 23.5688C9.15108 23.2812 9.0077 22.925 9.0077 22.5V13.5L0.330033 2.4C-0.0440044 1.9 -0.10011 1.375 0.161716 0.825C0.423542 0.275 0.878621 0 1.52695 0H22.473C23.1214 0 23.5765 0.275 23.8383 0.825C24.1001 1.375 24.044 1.9 23.67 2.4L14.9923 13.5V22.5C14.9923 22.925 14.8489 23.2812 14.5622 23.5688C14.2754 23.8563 13.9201 24 13.4961 24H10.5038ZM12 12.45L19.4059 3H4.59406L12 12.45Z" fill="#7C7B81"/>
</svg>
