<svg width="22" height="16" viewBox="0 0 22 16" fill="none" xmlns="http://www.w3.org/2000/svg">
<path d="M11 12.8C12.25 12.8 13.3125 12.3333 14.1875 11.4C15.0625 10.4667 15.5 9.33333 15.5 8C15.5 6.66667 15.0625 5.53333 14.1875 4.6C13.3125 3.66667 12.25 3.2 11 3.2C9.75 3.2 8.6875 3.66667 7.8125 4.6C6.9375 5.53333 6.5 6.66667 6.5 8C6.5 9.33333 6.9375 10.4667 7.8125 11.4C8.6875 12.3333 9.75 12.8 11 12.8ZM11 10.88C10.25 10.88 9.6125 10.6 9.0875 10.04C8.5625 9.48 8.3 8.8 8.3 8C8.3 7.2 8.5625 6.52 9.0875 5.96C9.6125 5.4 10.25 5.12 11 5.12C11.75 5.12 12.3875 5.4 12.9125 5.96C13.4375 6.52 13.7 7.2 13.7 8C13.7 8.8 13.4375 9.48 12.9125 10.04C12.3875 10.6 11.75 10.88 11 10.88ZM11 16C8.56667 16 6.35 15.2756 4.35 13.8267C2.35 12.3778 0.9 10.4356 0 8C0.9 5.56444 2.35 3.62222 4.35 2.17333C6.35 0.724445 8.56667 0 11 0C13.4333 0 15.65 0.724445 17.65 2.17333C19.65 3.62222 21.1 5.56444 22 8C21.1 10.4356 19.65 12.3778 17.65 13.8267C15.65 15.2756 13.4333 16 11 16ZM11 13.8667C12.8833 13.8667 14.6125 13.3378 16.1875 12.28C17.7625 11.2222 18.9667 9.79556 19.8 8C18.9667 6.20444 17.7625 4.77778 16.1875 3.72C14.6125 2.66222 12.8833 2.13333 11 2.13333C9.11667 2.13333 7.3875 2.66222 5.8125 3.72C4.2375 4.77778 3.03333 6.20444 2.2 8C3.03333 9.79556 4.2375 11.2222 5.8125 12.28C7.3875 13.3378 9.11667 13.8667 11 13.8667Z" fill="#A7DFD1"/>
</svg>
